<svg xmlns="http://www.w3.org/2000/svg" width="28" height="28" viewBox="0 0 28 28"><g data-name="타원 12" fill="none" stroke="#fff"><circle cx="14" cy="14" r="14" stroke="none"/><circle cx="14" cy="14" r="13.5"/></g><g data-name="그룹 57" fill="#fff"><path data-name="패스 162" d="M13.894 8.048a.458.458 0 00-.472.038l-3.5 2.567H6.45a.452.452 0 00-.451.451v5.793a.449.449 0 00.451.448h3.472l3.5 2.566a.444.444 0 00.267.088.51.51 0 00.2-.046.453.453 0 00.246-.4v-11.1a.447.447 0 00-.241-.405z"/><path data-name="패스 163" d="M19.394 13.999l1.851-1.851a.453.453 0 000-.639.445.445 0 00-.633 0l-1.858 1.854-1.851-1.854a.452.452 0 10-.638.639l1.857 1.851-1.857 1.854a.45.45 0 000 .637.458.458 0 00.322.132.443.443 0 00.316-.132l1.851-1.852 1.858 1.852a.449.449 0 10.633-.637z"/></g></svg>