<svg xmlns="http://www.w3.org/2000/svg" width="28" height="28" viewBox="0 0 28 28"><defs><style>.cls-2{fill:#fff}</style></defs><g id="main-icon-soundon-ffffff" transform="translate(-97 -890)"><g id="타원_13" fill="none" stroke="#fff" transform="translate(97 890)"><circle cx="14" cy="14" r="14" stroke="none"/><circle cx="14" cy="14" r="13.5"/></g><g id="그룹_58" transform="translate(-185.205 484.553)"><path id="패스_164" d="M296.1 413.495a.457.457 0 00-.471.038l-3.5 2.566h-3.472a.452.452 0 00-.451.451v5.793a.449.449 0 00.451.449h3.472l3.5 2.567a.447.447 0 00.266.088.5.5 0 00.2-.046.451.451 0 00.246-.4V413.9a.445.445 0 00-.241-.405z" class="cls-2"/><path id="패스_165" d="M301.894 416.377a.513.513 0 10-.722.73 4.092 4.092 0 010 5.793.512.512 0 00.363.876.5.5 0 00.358-.146 5.119 5.119 0 000-7.252z" class="cls-2" transform="translate(-2.563 -.556)"/><path id="패스_166" d="M304.589 414.572a.514.514 0 00-.727.726 6.11 6.11 0 010 8.684.517.517 0 000 .727.512.512 0 00.364.154.534.534 0 00.363-.154 7.144 7.144 0 000-10.138z" class="cls-2" transform="translate(-3.101 -.195)"/></g></g></svg>